<?xml version="1.0" encoding="utf-8"?>
<!-- Generator: Adobe Illustrator 18.0.0, SVG Export Plug-In . SVG Version: 6.00 Build 0)  -->
<!DOCTYPE svg PUBLIC "-//W3C//DTD SVG 1.1//EN" "http://www.w3.org/Graphics/SVG/1.1/DTD/svg11.dtd">
<svg version="1.1" xmlns="http://www.w3.org/2000/svg" xmlns:xlink="http://www.w3.org/1999/xlink" x="0px" y="0px"
	 viewBox="0 0 16 16" enable-background="new 0 0 16 16" xml:space="preserve">
<g id="shapes_1">
</g>
<g id="shapes_2" display="none">
</g>
<g id="Layer_1">
	<g>
		<circle fill="#666668" cx="8" cy="8" r="8"/>
	</g>
	<g>
		<path fill="#FFFFFF" d="M9.1,5.3C9.1,4.5,8.6,4,7.8,4C7.1,4,6.5,4.3,6.1,4.8L5,3.9c0.7-0.8,1.7-1.4,2.9-1.4c1.8,0,3.1,0.9,3.1,2.6
			c0,2-2.6,2.7-2.4,4.8H7C6.6,7.6,9.1,6.7,9.1,5.3z M7.8,11C8.5,11,9,11.6,9,12.3c0,0.7-0.6,1.2-1.3,1.2S6.6,13,6.6,12.3
			C6.6,11.6,7.1,11,7.8,11z"/>
	</g>
</g>
</svg>
