<?xml version="1.0" encoding="utf-8"?>
<!-- Generator: Adobe Illustrator 18.0.0, SVG Export Plug-In . SVG Version: 6.00 Build 0)  -->
<!DOCTYPE svg PUBLIC "-//W3C//DTD SVG 1.1//EN" "http://www.w3.org/Graphics/SVG/1.1/DTD/svg11.dtd">
<svg version="1.1" xmlns="http://www.w3.org/2000/svg" xmlns:xlink="http://www.w3.org/1999/xlink" x="0px" y="0px"
	 viewBox="0 0 34 42" enable-background="new 0 0 34 42" xml:space="preserve">
<g id="ORIGINAL_images">
</g>
<g id="shapes_1">
</g>
<g id="shapes_2">
</g>
<g id="Layer_1">
	<g>
		<polygon fill="#F6F6F7" points="2.1,38 2.1,4.3 17.7,4.3 28,15.1 28,38.2 27.9,38 		"/>
		<path fill="#323335" d="M17.2,5L27,15.6V37H3V5h14 M18.1,3h-16C1.5,3,1,3.8,1,4.4v33.8C1,38.8,1.5,39,2.1,39h25.8
			c0.6,0,1.1-0.2,1.1-0.8V14.7L18.1,3L18.1,3z"/>
	</g>
	<path fill="#2880FF" stroke="#323335" stroke-width="2.201" stroke-linejoin="round" d="M17.2,4.3v10.3c0,0.6,0.5,1.1,1.1,1.1h9.8
		L17.2,4.3z"/>
	<text transform="matrix(1 0 0 1 4 34.0002)"><tspan x="0" y="0" font-family="'SourceSansPro-Regular'" font-size="9">j</tspan><tspan x="4.1" y="0" font-family="'SourceSansPro-Regular'" font-size="9">ava</tspan></text>
	<rect id="_x3C_Slice_x3E_" fill="none" width="34" height="40"/>
</g>
</svg>
